<?xml version="1.0" standalone="no"?>
<!DOCTYPE svg PUBLIC "-//W3C//DTD SVG 20010904//EN"
 "http://www.w3.org/TR/2001/REC-SVG-20010904/DTD/svg10.dtd">
<svg version="1.0" xmlns="http://www.w3.org/2000/svg"
 width="102.000000pt" height="102.000000pt" viewBox="0 0 102.000000 102.000000"
 preserveAspectRatio="xMidYMid meet">
<metadata>
Created by potrace 1.11, written by Peter Selinger 2001-2013
</metadata>
<g transform="translate(0.000000,102.000000) scale(0.100000,-0.100000)"
fill="#000000" stroke="none">
<path d="M845 504 c0 -239 3 -434 8 -434 4 0 7 193 7 429 0 237 -3 432 -7 434
-5 3 -8 -190 -8 -429z"/>
<path d="M320 360 c0 -182 1 -190 20 -190 17 0 19 8 22 83 l3 82 68 3 c51 2
67 6 67 17 0 12 -15 15 -70 15 l-70 0 0 70 0 70 75 0 c68 0 75 2 75 20 0 19
-7 20 -95 20 l-95 0 0 -190z"/>
<path d="M595 418 c-53 -41 -69 -120 -39 -184 21 -43 59 -64 118 -64 53 0 76
8 76 25 0 10 -13 12 -53 8 -46 -5 -57 -2 -80 18 -15 13 -28 35 -29 49 -3 25
-3 25 91 28 l94 3 -6 42 c-11 85 -107 127 -172 75z m114 -34 c37 -47 29 -54
-54 -54 -67 0 -74 2 -68 18 22 62 87 81 122 36z"/>
</g>
</svg>
