<?xml version="1.0" standalone="no"?>
<!DOCTYPE svg PUBLIC "-//W3C//DTD SVG 20010904//EN"
 "http://www.w3.org/TR/2001/REC-SVG-20010904/DTD/svg10.dtd">
<svg version="1.0" xmlns="http://www.w3.org/2000/svg"
 width="500.000000pt" height="500.000000pt" viewBox="0 0 500.000000 500.000000"
 preserveAspectRatio="xMidYMid meet">
<metadata>
Created by potrace 1.11, written by Peter Selinger 2001-2013
</metadata>
<g transform="translate(0.000000,500.000000) scale(0.100000,-0.100000)"
fill="#000000" stroke="none">
<path d="M1347 4292 l-227 -227 0 -232 0 -232 -77 -3 -78 -3 -3 -152 -3 -153
81 0 80 0 0 -310 0 -310 308 2 307 3 3 308 2 307 1230 0 1230 0 0 155 0 155
-1230 0 -1230 0 0 460 0 460 -83 0 -82 0 -228 -228z"/>
<path d="M1730 2290 l0 -80 -610 0 c-335 0 -610 -4 -610 -9 0 -21 213 -230
308 -301 172 -129 401 -232 607 -274 44 -9 157 -22 250 -30 156 -12 176 -16
231 -44 220 -111 277 -387 121 -586 -55 -69 -186 -136 -269 -136 l-28 0 0
-155 0 -155 464 0 464 0 7 47 c15 100 87 193 183 235 62 28 172 28 234 0 95
-42 171 -140 185 -237 l6 -45 463 0 464 0 0 155 0 155 -32 0 c-122 1 -284 69
-383 161 -83 78 -132 153 -169 259 -26 73 -30 99 -30 190 0 176 56 312 179
436 106 106 214 156 388 179 l47 6 0 155 0 154 -1235 0 -1235 0 0 -80z"/>
</g>
</svg>
